<?xml version="1.0" encoding="utf-8"?>
<!-- Generator: Adobe Illustrator 19.2.0, SVG Export Plug-In . SVG Version: 6.00 Build 0)  -->
<svg version="1.1" id="Capa_1" xmlns="http://www.w3.org/2000/svg" xmlns:xlink="http://www.w3.org/1999/xlink" x="0px" y="0px"
	 viewBox="0 0 48 48" style="enable-background:new 0 0 48 48;" xml:space="preserve">
<style type="text/css">
	.st0{fill:#333333;}
</style>
<g>
	<path class="st0" d="M0.2,30c2.2,19.1,4.6,0,4.6,0s0.8-8,2.5-7l-0.9,0.9l3.3,3.3l15.9,16c1.1,1.1,2.6,1.7,4.2,1.7
		c1.6,0,3.1-0.6,4.2-1.7l12.2-12.3c1.1-1.1,1.7-2.6,1.7-4.2s-0.6-3.1-1.7-4.2l-1.7-1.7c-0.6,1.1-1.3,2-2,2.8l1.3,1.3
		c0.5,0.5,0.7,1.1,0.7,1.8c0,0.7-0.3,1.3-0.7,1.8L31.6,40.7c-1,1-2.6,1-3.6,0l-15.9-16c-1-1-1-2.6,0-3.6L24.4,8.9
		c0.5-0.5,1.1-0.7,1.8-0.7c0.7,0,1.3,0.3,1.8,0.7L38.1,19c0.7-0.7,1.3-1.6,1.8-2.6c0,0,0-0.1,0.1-0.2l-5.6-5.6L33.8,10
		c3.9,0.4,6.4,1.5,7.4,3.3c1.2,2.1-0.2,4.6-0.2,4.6c-1.3,2.7-3,4.1-5.3,4.6c-3,0.6-6.5-0.8-9-2.3c0-0.2,0.1-0.5,0.1-0.7
		c0-2.4-1.9-4.3-4.3-4.3s-4.3,1.9-4.3,4.3s1.9,4.3,4.3,4.3c0.9,0,1.8-0.3,2.4-0.8c2.6,1.5,6,2.9,9.4,2.9c0.7,0,1.4-0.1,2.2-0.2
		c3.3-0.7,5.8-2.8,7.6-6.3c0.1-0.1,2.2-4.2,0.1-7.9C42.4,8.5,37.6,6,30.8,7l-3.9-3.9l-1.7,1.7L13.7,16.5C12.5,16.1-1.9,11.7,0.2,30z
		"/>
</g>
</svg>
