<?xml version="1.0" encoding="utf-8"?>
<!-- Generator: Adobe Illustrator 19.2.0, SVG Export Plug-In . SVG Version: 6.00 Build 0)  -->
<svg version="1.1" id="Capa_1" xmlns="http://www.w3.org/2000/svg" xmlns:xlink="http://www.w3.org/1999/xlink" x="0px" y="0px"
	 viewBox="0 0 48 48" style="enable-background:new 0 0 48 48;" xml:space="preserve">
<style type="text/css">
	.st0{fill:#333333;}
</style>
<g>
	<path class="st0" d="M32.5,5.5l1.3-2.2c0.3-0.5,0.9-0.7,1.5-0.4c0.5,0.3,0.7,0.9,0.4,1.5l-1.3,2.2c-0.2,0.4-0.6,0.5-0.9,0.5
		c-0.2,0-0.4-0.1-0.5-0.1C32.4,6.7,32.2,6.1,32.5,5.5z M13.6,6.6c0.2,0.4,0.6,0.5,0.9,0.5c0.2,0,0.4-0.1,0.5-0.1
		c0.5-0.3,0.7-0.9,0.4-1.5l-1.3-2.2c-0.3-0.5-0.9-0.7-1.5-0.4c-0.5,0.3-0.7,0.9-0.4,1.5L13.6,6.6z M24,4.6c0.6,0,1-0.5,1-1V1
		c0-0.6-0.5-1-1-1c-0.6,0-1,0.5-1,1v2.5C22.9,4.1,23.4,4.6,24,4.6z M5.1,21.3H2.6c-0.6,0-1,0.5-1,1c0,0.6,0.5,1,1,1h2.5
		c0.6,0,1-0.5,1-1C6.2,21.8,5.7,21.3,5.1,21.3z M45.4,21.3h-2.5c-0.6,0-1,0.5-1,1c0,0.6,0.5,1,1,1h2.5c0.6,0,1-0.5,1-1
		C46.4,21.8,46,21.3,45.4,21.3z M43.5,11.2c-0.3-0.5-0.9-0.7-1.5-0.4l-2.2,1.3c-0.5,0.3-0.7,0.9-0.4,1.5c0.2,0.4,0.6,0.5,0.9,0.5
		c0.2,0,0.4-0.1,0.5-0.1l2.2-1.3C43.6,12.3,43.7,11.7,43.5,11.2z M37.7,22.2c0,2.4-0.6,4.7-1.8,6.8c-0.1,0.2-0.1,0.3-0.2,0.4
		l-0.1,0.2c-0.5,0.7-0.9,1.4-1.5,2c-2,2.9-3.1,5.3-3,6.9v0.1c0,0.1,0.1,0.3,0.1,0.5v5c0,2.2-1.8,4-4,4h-6.5c-2.2,0-4-1.8-4-4v-5
		c0-0.1,0-0.2,0-0.3c0-0.1,0-0.2,0-0.2c0.1-1.5-1-3.9-2.9-6.7c-0.6-0.7-1.3-1.5-1.7-2.3c-0.1-0.1-0.1-0.2-0.2-0.3
		c-1.2-2.1-1.9-4.5-1.9-6.9c0-7.6,6.2-13.9,13.9-13.9C31.5,8.4,37.7,14.6,37.7,22.2z M28.9,39.6H18.9v2h10.1V39.6L28.9,39.6z
		 M28.9,44.2v-0.4H18.9v0.4c0.1,0.9,0.9,1.6,1.8,1.6h6.5C28.1,45.8,28.8,45.1,28.9,44.2z M8.2,12.1L6,10.8c-0.5-0.3-1.2-0.1-1.5,0.4
		c-0.3,0.5-0.1,1.2,0.4,1.5l2.2,1.3C7.3,14,7.5,14,7.6,14c0.4,0,0.8-0.2,0.9-0.5C8.8,13,8.7,12.3,8.2,12.1z"/>
</g>
</svg>
