<?xml version="1.0" encoding="iso-8859-1"?>
<!-- Generator: Adobe Illustrator 18.0.0, SVG Export Plug-In . SVG Version: 6.00 Build 0)  -->
<!DOCTYPE svg PUBLIC "-//W3C//DTD SVG 1.1//EN" "http://www.w3.org/Graphics/SVG/1.1/DTD/svg11.dtd">
<svg version="1.1" id="Capa_1" xmlns="http://www.w3.org/2000/svg" xmlns:xlink="http://www.w3.org/1999/xlink" x="0px" y="0px"
	 viewBox="0 0 491.821 491.821" style="enable-background:new 0 0 491.821 491.821;" xml:space="preserve">
<path style="fill:#333333;" d="M475.45,71.48H241.061c-4.046,0-7.946,1.495-10.956,4.19L5.42,277.478c-3.452,3.11-5.42,7.537-5.42,12.18V403.97
	c0,9.039,7.338,16.371,16.371,16.371h234.394c4.027,0,7.927-1.497,10.932-4.189l224.691-201.799
	c3.452-3.111,5.434-7.539,5.434-12.184V87.852C491.821,78.81,484.496,71.48,475.45,71.48z M317.27,207.909l-72.789,65.379H59.108
	l72.774-65.373L317.27,207.909z M267.135,296.965l74.674-67.073l0.082,70.223l-74.756,67.149V296.965z M32.745,306.03h201.649
	v81.568H32.745V306.03z"/>
</svg>
