<?xml version="1.0" encoding="iso-8859-1"?>
<!-- Generator: Adobe Illustrator 18.0.0, SVG Export Plug-In . SVG Version: 6.00 Build 0)  -->
<!DOCTYPE svg PUBLIC "-//W3C//DTD SVG 1.1//EN" "http://www.w3.org/Graphics/SVG/1.1/DTD/svg11.dtd">
<svg version="1.1" id="Capa_1" xmlns="http://www.w3.org/2000/svg" xmlns:xlink="http://www.w3.org/1999/xlink" x="0px" y="0px"
	 viewBox="0 0 364.926 364.926" style="enable-background:new 0 0 364.926 364.926;" xml:space="preserve">
<g>
	<path style="fill:#333333;" d="M357.572,28.471L336.456,7.353c-9.805-9.803-25.76-9.803-35.565,0c0,0,0,0,0,0.001l0,0L41.052,267.193
		c-0.762,0.763-1.321,1.648-1.687,2.593c-0.002-0.006-0.006-0.012-0.009-0.018L0.68,354.304c-1.303,2.849-0.698,6.208,1.517,8.423
		c1.438,1.439,3.356,2.197,5.305,2.197c1.054,0,2.118-0.223,3.118-0.68l84.93-38.853c0.034-0.016,0.064-0.036,0.098-0.053
		c0.753-0.358,1.462-0.841,2.085-1.464L357.572,64.037c0.003-0.003,0.005-0.007,0.009-0.009
		C367.378,54.221,367.374,38.272,357.572,28.471z M268.266,61.191l12.432,12.431L69.392,284.926l-12.43-12.43L268.266,61.191z
		 M30.913,324.276l9.736,9.736l-17.946,8.209L30.913,324.276z M55.205,327.353l-17.632-17.632l11.112-24.289l30.809,30.81
		L55.205,327.353z M92.43,307.965l-12.432-12.432L291.304,84.228l12.431,12.431L92.43,307.965z M314.342,86.052l-35.469-35.468
		l17.602-17.602l35.469,35.47L314.342,86.052z M346.967,53.427c0,0.001-0.002,0.001-0.002,0.002l-4.416,4.415l-35.467-35.469
		l4.414-4.415c3.959-3.957,10.397-3.956,14.353-0.001l21.116,21.118C350.921,43.033,350.923,49.469,346.967,53.427z"/>
</g>
</svg>
