<?xml version="1.0" encoding="iso-8859-1"?>
<!-- Generator: Adobe Illustrator 18.0.0, SVG Export Plug-In . SVG Version: 6.00 Build 0)  -->
<!DOCTYPE svg PUBLIC "-//W3C//DTD SVG 1.1//EN" "http://www.w3.org/Graphics/SVG/1.1/DTD/svg11.dtd">
<svg version="1.1" id="Capa_1" xmlns="http://www.w3.org/2000/svg" xmlns:xlink="http://www.w3.org/1999/xlink" x="0px" y="0px"
	 viewBox="0 0 443.035 443.035" style="enable-background:new 0 0 443.035 443.035;" xml:space="preserve">
<path style="fill:#333333;" d="M431.513,11.522c-15.363-15.362-40.357-15.362-55.721,0L269.194,118.121c-2.508-0.688-5.122-1.052-7.793-1.052
	c-7.821,0-15.176,3.046-20.706,8.577c-5.531,5.531-8.577,12.885-8.577,20.707c0,2.671,0.363,5.284,1.051,7.792L15.193,372.122
	c-12.919,12.92-14.97,32.651-6.159,47.738l-6.104,6.104c-3.905,3.905-3.906,10.237,0,14.142c1.953,1.953,4.512,2.929,7.071,2.929
	c2.559,0,5.119-0.977,7.071-2.929l6.105-6.105c6.117,3.573,12.997,5.363,19.877,5.363c10.089,0,20.179-3.841,27.86-11.521
	L288.89,209.866c2.508,0.688,5.121,1.051,7.792,1.051c7.821,0,15.176-3.046,20.706-8.577c5.531-5.531,8.577-12.885,8.577-20.707
	c0-2.671-0.363-5.284-1.051-7.792l106.599-106.6C446.875,51.88,446.875,26.884,431.513,11.522z M154.769,315.702H99.897
	l144.719-144.719l27.436,27.435L154.769,315.702z M56.771,413.7c-7.563,7.564-19.872,7.564-27.436,0
	c-7.564-7.564-7.564-19.872,0-27.436l50.562-50.562h54.871L56.771,413.7z M303.246,188.199c-1.753,1.753-4.084,2.719-6.563,2.719
	c-2.48,0-4.812-0.965-6.564-2.719v0l-35.28-35.28c-1.754-1.753-2.72-4.085-2.72-6.564s0.966-4.811,2.72-6.565
	c1.753-1.753,4.084-2.719,6.563-2.719c2.48,0,4.812,0.965,6.564,2.719l35.28,35.28c1.754,1.753,2.72,4.085,2.72,6.564
	S305,186.445,303.246,188.199z M417.371,53.1L313.466,157.005l-27.436-27.435L389.935,25.664c3.664-3.664,8.536-5.682,13.718-5.682
	s10.054,2.018,13.718,5.682C424.935,33.228,424.935,45.536,417.371,53.1z"/>
</svg>
